<svg xmlns="http://www.w3.org/2000/svg" viewBox="0 0 1200 630" width="1200" height="630">
  <defs>
    <linearGradient id="bg" x1="0" y1="0" x2="1" y2="1">
      <stop offset="0%" stop-color="#07070c" />
      <stop offset="100%" stop-color="#15111f" />
    </linearGradient>
    <linearGradient id="mark" x1="0" y1="0" x2="1" y2="1">
      <stop offset="0%" stop-color="#a78bfa" />
      <stop offset="100%" stop-color="#6d28d9" />
    </linearGradient>
    <radialGradient id="glow" cx="0.75" cy="0.2" r="0.7">
      <stop offset="0%" stop-color="#8b5cf6" stop-opacity="0.35" />
      <stop offset="100%" stop-color="#8b5cf6" stop-opacity="0" />
    </radialGradient>
  </defs>
  <rect width="1200" height="630" fill="url(#bg)" />
  <rect width="1200" height="630" fill="url(#glow)" />
  <g transform="translate(96 96)">
    <rect width="72" height="72" rx="17" fill="url(#mark)" />
    <path d="M29 24c0-1.5 1.6-2.4 2.9-1.7l15.6 9a2 2 0 0 1 0 3.5l-15.6 9c-1.3.7-2.9-.2-2.9-1.7z" fill="#ffffff" />
    <text x="92" y="52" font-family="Inter, Segoe UI, sans-serif" font-size="44" font-weight="700" fill="#ffffff">
      ClipForge AI
    </text>
  </g>
  <text x="96" y="330" font-family="Inter, Segoe UI, sans-serif" font-size="74" font-weight="800" fill="#ffffff">
    Turn Hours of Video
  </text>
  <text x="96" y="418" font-family="Inter, Segoe UI, sans-serif" font-size="74" font-weight="800" fill="url(#mark)">
    Into Minutes of Content.
  </text>
  <text x="96" y="500" font-family="Inter, Segoe UI, sans-serif" font-size="28" font-weight="500" fill="#9ca3b8">
    AI finds your best moments and prepares them for every social platform.
  </text>
  <g transform="translate(96 556)">
    <rect width="196" height="52" rx="10" fill="none" stroke="#ffffff" stroke-opacity="0.16" />
    <text x="24" y="34" font-family="Inter, Segoe UI, sans-serif" font-size="21" font-weight="600" fill="#c4b5fd">
      Reels &#183; Shorts &#183; TikTok
    </text>
  </g>
</svg>
